<svg width="84" height="84" viewBox="0 0 84 84" fill="none" xmlns="http://www.w3.org/2000/svg">
<g filter="url(#filter0_d_56_7587)">
<rect x="14" y="6" width="56" height="56" rx="8" fill="#1B5CC4"/>
</g>
<mask id="mask0_56_7587" style="mask-type:alpha" maskUnits="userSpaceOnUse" x="26" y="18" width="32" height="32">
<rect x="26" y="18" width="32" height="32" fill="#D9D9D9"/>
</mask>
<g mask="url(#mask0_56_7587)">
<path d="M47.5673 35.3321H32.6673C32.2895 35.3321 31.9729 35.2043 31.7173 34.9487C31.4618 34.6932 31.334 34.3765 31.334 33.9987C31.334 33.621 31.4618 33.3043 31.7173 33.0487C31.9729 32.7932 32.2895 32.6654 32.6673 32.6654H47.5673L41.034 26.1321C40.7673 25.8654 40.6395 25.5543 40.6507 25.1987C40.6618 24.8432 40.8007 24.5321 41.0673 24.2654C41.334 24.021 41.6451 23.8932 42.0007 23.8821C42.3562 23.871 42.6673 23.9987 42.934 24.2654L51.734 33.0654C51.8673 33.1987 51.9618 33.3432 52.0173 33.4987C52.0729 33.6543 52.1007 33.821 52.1007 33.9987C52.1007 34.1765 52.0729 34.3432 52.0173 34.4987C51.9618 34.6543 51.8673 34.7987 51.734 34.9321L42.934 43.7321C42.6895 43.9765 42.384 44.0987 42.0173 44.0987C41.6507 44.0987 41.334 43.9765 41.0673 43.7321C40.8007 43.4654 40.6673 43.1487 40.6673 42.7821C40.6673 42.4154 40.8007 42.0987 41.0673 41.8321L47.5673 35.3321Z" fill="white"/>
</g>
<defs>
<filter id="filter0_d_56_7587" x="0" y="0" width="84" height="84" filterUnits="userSpaceOnUse" color-interpolation-filters="sRGB">
<feFlood flood-opacity="0" result="BackgroundImageFix"/>
<feColorMatrix in="SourceAlpha" type="matrix" values="0 0 0 0 0 0 0 0 0 0 0 0 0 0 0 0 0 0 127 0" result="hardAlpha"/>
<feOffset dy="8"/>
<feGaussianBlur stdDeviation="7"/>
<feComposite in2="hardAlpha" operator="out"/>
<feColorMatrix type="matrix" values="0 0 0 0 0 0 0 0 0 0 0 0 0 0 0 0 0 0 0.2 0"/>
<feBlend mode="normal" in2="BackgroundImageFix" result="effect1_dropShadow_56_7587"/>
<feBlend mode="normal" in="SourceGraphic" in2="effect1_dropShadow_56_7587" result="shape"/>
</filter>
</defs>
</svg>
