<svg xmlns="http://www.w3.org/2000/svg" width="24" height="24" viewBox="0 0 24 24" fill="none">
  <path d="M8 20.0009V21.9334C8 22.2095 7.77614 22.4334 7.5 22.4334C7.38303 22.4334 7.26977 22.3924 7.17991 22.3175L3.06093 18.885C2.84879 18.7082 2.82013 18.3929 2.99691 18.1808C3.09191 18.0668 3.23264 18.0009 3.38103 18.0009H18C19.1046 18.0009 20 17.1055 20 16.0009V8.00086H22V16.0009C22 18.21 20.2091 20.0009 18 20.0009H8ZM16 4.00086V2.06836C16 1.79222 16.2239 1.56836 16.5 1.56836C16.617 1.56836 16.7302 1.60937 16.8201 1.68425L20.9391 5.11673C21.1512 5.29352 21.1799 5.6088 21.0031 5.82094C20.9081 5.93493 20.7674 6.00084 20.619 6.00084L6 6.00086C4.89543 6.00086 4 6.89629 4 8.00086V16.0009H2V8.00086C2 5.79172 3.79086 4.00086 6 4.00086H16Z" fill="#B6B6B6"/>
</svg>